# xmcd
#
# Track frame offsets: 
#        150
#        20830
#        38452
#        58219
#        81306
#        109055
#        131559
#        152605
#        168129
#        183376
#        203383
#
# Disc length: 2926 seconds
#
# Revision: 0
# Processed by: cddbd v1.5.2PL0 Copyright (c) Steve Scherf et al.
# Submitted via: ExactAudioCopy v0.99pb5
#
DISCID=860b6c0b
DTITLE=Robin McKelle - Mess Around
DYEAR=2010
DGENRE=Blues
TTITLE0=Mess Around
TTITLE1=I Can't See Nobody
TTITLE2=Never Make a Move Too Soon
TTITLE3=Everybody Knows
TTITLE4=Angel
TTITLE5=Until the Day I Die
TTITLE6=Cry Me a River
TTITLE7=Lonely Avenue
TTITLE8=Eleanor Rigby
TTITLE9=I Just Want to Make Love to You
TTITLE10=Since I Looked In Your Eyes
EXTD=
EXTT0=
EXTT1=
EXTT2=
EXTT3=
EXTT4=
EXTT5=
EXTT6=
EXTT7=
EXTT8=
EXTT9=
EXTT10=
PLAYORDER=
